<svg width="16" height="16" viewBox="0 0 16 16" xmlns="http://www.w3.org/2000/svg"><title>h2</title><g fill="#000" fill-rule="evenodd"><path d="M0 .05h2.714V15.06H0V.05zM7.306 0h2.714v15.008H7.306V0z"/><path d="M0 6.24h10.005v2.647H0zM15.627 15.405h-3.183c.037-.332.148-.645.332-.939.185-.293.532-.639 1.04-1.038.312-.244.51-.43.597-.557a.646.646 0 0 0 .13-.36.434.434 0 0 0-.129-.317.436.436 0 0 0-.324-.13.439.439 0 0 0-.332.135c-.086.09-.143.249-.173.477l-1.062-.091c.041-.317.118-.563.229-.74a1.08 1.08 0 0 1 .47-.409c.202-.095.482-.142.84-.142.373 0 .663.045.87.135.208.09.371.229.49.415.12.187.179.396.179.628 0 .246-.068.481-.205.705-.136.225-.384.471-.743.74a7.898 7.898 0 0 0-.429.327 4.015 4.015 0 0 0-.254.246h1.657v.915z"/></g></svg>