<svg width="16" height="16" viewBox="0 0 16 16" xmlns="http://www.w3.org/2000/svg"><title>h3</title><g fill="#000" fill-rule="evenodd"><path d="M0 .05h2.714V15.06H0V.05zM7.306 0h2.714v15.008H7.306V0z"/><path d="M0 6.24h10.005v2.647H0zM13.504 12.532l-1.002-.19c.083-.338.243-.598.48-.778.237-.18.573-.27 1.007-.27.498 0 .858.098 1.08.295a.949.949 0 0 1 .334.742.863.863 0 0 1-.136.474c-.09.142-.226.266-.408.372.147.039.26.084.338.136a.855.855 0 0 1 .296.326c.07.135.105.297.105.484 0 .235-.058.461-.174.677a1.2 1.2 0 0 1-.503.5c-.219.116-.506.174-.862.174-.347 0-.621-.043-.822-.13a1.233 1.233 0 0 1-.494-.378 1.783 1.783 0 0 1-.299-.628l1.06-.149c.042.226.107.383.194.47.088.088.2.131.335.131.142 0 .26-.055.355-.165a.654.654 0 0 0 .142-.441c0-.188-.045-.333-.136-.436a.47.47 0 0 0-.371-.154c-.084 0-.198.022-.344.066l.055-.802c.059.009.105.013.138.013a.47.47 0 0 0 .347-.14.458.458 0 0 0 .14-.334.412.412 0 0 0-.105-.295.375.375 0 0 0-.286-.11.407.407 0 0 0-.305.12c-.078.08-.13.22-.159.42z"/></g></svg>