<svg width="16" height="16" viewBox="0 0 16 16" xmlns="http://www.w3.org/2000/svg"><title>h5</title><g fill="#000" fill-rule="evenodd"><path d="M0 .05h2.714V15.06H0V.05zM7.306 0h2.714v15.008H7.306V0z"/><path d="M0 6.24h10.005v2.647H0zM12.918 11.294h2.519v.896H13.73l-.091.607c.118-.059.235-.103.35-.132.115-.03.23-.045.342-.045.382 0 .692.123.93.367.238.245.357.553.357.924 0 .26-.061.512-.184.753-.122.24-.296.424-.52.551-.225.127-.513.19-.864.19-.252 0-.467-.025-.647-.075a1.285 1.285 0 0 1-.764-.567 1.832 1.832 0 0 1-.196-.474l1.073-.124c.026.182.087.32.183.415.095.094.209.142.34.142.148 0 .27-.06.367-.178.096-.119.144-.296.144-.531 0-.24-.048-.417-.146-.53a.488.488 0 0 0-.388-.168.601.601 0 0 0-.297.08.876.876 0 0 0-.234.21l-.904-.138.336-2.173z"/></g></svg>