<svg width="16" height="16" viewBox="0 0 16 16" xmlns="http://www.w3.org/2000/svg"><title>h6</title><g fill="#000" fill-rule="evenodd"><path d="M0 .05h2.714V15.06H0V.05zM7.306 0h2.714v15.008H7.306V0z"/><path d="M0 6.24h10.005v2.647H0zM15.51 12.273l-1.055.138c-.028-.156-.074-.267-.14-.331a.33.33 0 0 0-.24-.097c-.172 0-.306.092-.401.276-.07.133-.121.416-.154.85.127-.137.257-.237.39-.302.134-.066.289-.098.464-.098.34 0 .628.128.863.386.236.257.353.583.353.979 0 .266-.06.51-.178.73-.119.22-.284.388-.495.5-.21.114-.475.17-.793.17-.382 0-.688-.069-.92-.207-.23-.137-.415-.358-.553-.66-.138-.302-.207-.703-.207-1.2 0-.73.145-1.265.435-1.604.29-.34.692-.509 1.206-.509.304 0 .544.037.72.112.176.074.323.183.439.327.116.143.205.323.266.54zm-1.954 1.8c0 .22.053.39.157.515a.482.482 0 0 0 .382.186.437.437 0 0 0 .35-.168c.093-.112.14-.28.14-.502 0-.228-.049-.402-.146-.521a.47.47 0 0 0-.733-.006c-.1.116-.15.281-.15.497z"/></g></svg>