<svg xmlns="http://www.w3.org/2000/svg" width="16" height="16" viewBox="0 0 1024 1024"><path d="M320 704c17.6 17.6 47.274 16.726 65.942-1.942L702.06 385.942C720.728 367.274 721.6 337.6 704 320s-47.274-16.726-65.942 1.942L321.942 638.058C303.274 656.726 302.4 686.4 320 704zm156.888-28.888c4.56 9.05 6.99 19.16 6.99 29.696 0 17.616-6.744 34.06-18.992 46.308L301.504 914.498c-12.248 12.248-28.694 18.992-46.308 18.992s-34.06-6.744-46.308-18.992l-99.382-99.382c-12.248-12.248-18.992-28.694-18.992-46.308s6.744-34.06 18.992-46.308l163.382-163.382c12.248-12.248 28.694-18.994 46.308-18.994 10.536 0 20.644 2.43 29.696 6.99l65.338-65.338c-27.87-21.41-61.44-32.16-95.034-32.16-39.986 0-79.972 15.166-110.308 45.502L45.506 658.5c-60.67 60.67-60.67 159.948 0 220.618l99.382 99.382c30.334 30.332 70.32 45.5 110.306 45.5 39.988 0 79.974-15.168 110.308-45.502l163.382-163.382c55.82-55.82 60.238-144.298 13.344-205.344l-65.34 65.34zm501.61-530.228l-99.382-99.382C848.782 15.166 808.796 0 768.808 0 728.822 0 688.836 15.166 658.5 45.502L495.118 208.884c-55.82 55.82-60.238 144.298-13.342 205.342l65.338-65.34c-4.558-9.05-6.988-19.16-6.988-29.694 0-17.616 6.744-34.06 18.992-46.308L722.5 109.502c12.248-12.248 28.694-18.994 46.308-18.994s34.06 6.746 46.308 18.994l99.382 99.382c12.248 12.248 18.992 28.694 18.992 46.308s-6.744 34.06-18.992 46.308L751.116 464.882c-12.248 12.248-28.694 18.992-46.308 18.992-10.536 0-20.644-2.43-29.696-6.99l-65.338 65.338c27.872 21.41 61.44 32.16 95.034 32.16 39.988 0 79.974-15.168 110.308-45.502l163.382-163.382c60.67-60.666 60.67-159.944 0-220.614z"/></svg>