<svg xmlns="http://www.w3.org/2000/svg" width="16" height="16" viewBox="0 0 1024 1024"><path d="M225 448c123.712 0 224 100.29 224 224 0 123.712-100.288 224-224 224S1 795.712 1 672l-1-32c0-247.424 200.576-448 448-448v128c-85.474 0-165.834 33.286-226.274 93.726a324.643 324.643 0 0 0-31.83 37.02A225.675 225.675 0 0 1 225 448zm576 0c123.71 0 224 100.29 224 224 0 123.712-100.29 224-224 224S577 795.712 577 672l-1-32c0-247.424 200.576-448 448-448v128c-85.474 0-165.834 33.286-226.274 93.726a324.461 324.461 0 0 0-31.832 37.02A225.7 225.7 0 0 1 801 448z"/></svg>